<svg width="197" height="14" viewBox="0 0 197 14" fill="none" xmlns="http://www.w3.org/2000/svg">
<path d="M6.516 4.084C6.516 4.78 6.276 5.36 5.796 5.824C5.324 6.28 4.6 6.508 3.624 6.508H2.016V10H0.924V1.636H3.624C4.568 1.636 5.284 1.864 5.772 2.32C6.268 2.776 6.516 3.364 6.516 4.084ZM3.624 5.608C4.232 5.608 4.68 5.476 4.968 5.212C5.256 4.948 5.4 4.572 5.4 4.084C5.4 3.052 4.808 2.536 3.624 2.536H2.016V5.608H3.624ZM8.96522 4.492C9.15722 4.116 9.42922 3.824 9.78122 3.616C10.1412 3.408 10.5772 3.304 11.0892 3.304V4.432H10.8012C9.57722 4.432 8.96522 5.096 8.96522 6.424V10H7.87322V3.424H8.96522V4.492ZM12.9138 2.356C12.7058 2.356 12.5298 2.284 12.3858 2.14C12.2418 1.996 12.1698 1.82 12.1698 1.612C12.1698 1.404 12.2418 1.228 12.3858 1.084C12.5298 0.94 12.7058 0.868 12.9138 0.868C13.1138 0.868 13.2818 0.94 13.4178 1.084C13.5618 1.228 13.6338 1.404 13.6338 1.612C13.6338 1.82 13.5618 1.996 13.4178 2.14C13.2818 2.284 13.1138 2.356 12.9138 2.356ZM13.4418 3.424V10H12.3498V3.424H13.4418ZM17.7509 8.992L19.7909 3.424H20.9549L18.3749 10H17.1029L14.5229 3.424H15.6989L17.7509 8.992ZM21.6215 6.688C21.6215 6.016 21.7575 5.428 22.0295 4.924C22.3015 4.412 22.6735 4.016 23.1455 3.736C23.6255 3.456 24.1575 3.316 24.7415 3.316C25.3175 3.316 25.8175 3.44 26.2415 3.688C26.6655 3.936 26.9815 4.248 27.1895 4.624V3.424H28.2935V10H27.1895V8.776C26.9735 9.16 26.6495 9.48 26.2175 9.736C25.7935 9.984 25.2975 10.108 24.7295 10.108C24.1455 10.108 23.6175 9.964 23.1455 9.676C22.6735 9.388 22.3015 8.984 22.0295 8.464C21.7575 7.944 21.6215 7.352 21.6215 6.688ZM27.1895 6.7C27.1895 6.204 27.0895 5.772 26.8895 5.404C26.6895 5.036 26.4175 4.756 26.0735 4.564C25.7375 4.364 25.3655 4.264 24.9575 4.264C24.5495 4.264 24.1775 4.36 23.8415 4.552C23.5055 4.744 23.2375 5.024 23.0375 5.392C22.8375 5.76 22.7375 6.192 22.7375 6.688C22.7375 7.192 22.8375 7.632 23.0375 8.008C23.2375 8.376 23.5055 8.66 23.8415 8.86C24.1775 9.052 24.5495 9.148 24.9575 9.148C25.3655 9.148 25.7375 9.052 26.0735 8.86C26.4175 8.66 26.6895 8.376 26.8895 8.008C27.0895 7.632 27.1895 7.196 27.1895 6.7ZM29.7308 6.7C29.7308 6.02 29.8668 5.428 30.1388 4.924C30.4108 4.412 30.7868 4.016 31.2668 3.736C31.7548 3.456 32.3108 3.316 32.9348 3.316C33.7428 3.316 34.4068 3.512 34.9268 3.904C35.4548 4.296 35.8028 4.84 35.9708 5.536H34.7948C34.6828 5.136 34.4628 4.82 34.1348 4.588C33.8148 4.356 33.4148 4.24 32.9348 4.24C32.3108 4.24 31.8068 4.456 31.4228 4.888C31.0388 5.312 30.8468 5.916 30.8468 6.7C30.8468 7.492 31.0388 8.104 31.4228 8.536C31.8068 8.968 32.3108 9.184 32.9348 9.184C33.4148 9.184 33.8148 9.072 34.1348 8.848C34.4548 8.624 34.6748 8.304 34.7948 7.888H35.9708C35.7948 8.56 35.4428 9.1 34.9148 9.508C34.3868 9.908 33.7268 10.108 32.9348 10.108C32.3108 10.108 31.7548 9.968 31.2668 9.688C30.7868 9.408 30.4108 9.012 30.1388 8.5C29.8668 7.988 29.7308 7.388 29.7308 6.7ZM43.0919 3.424L39.1319 13.096H38.0039L39.2999 9.928L36.6479 3.424H37.8599L39.9239 8.752L41.9639 3.424H43.0919ZM52.9808 4.084C52.9808 4.78 52.7408 5.36 52.2608 5.824C51.7888 6.28 51.0648 6.508 50.0888 6.508H48.4808V10H47.3888V1.636H50.0888C51.0328 1.636 51.7488 1.864 52.2368 2.32C52.7328 2.776 52.9808 3.364 52.9808 4.084ZM50.0888 5.608C50.6968 5.608 51.1448 5.476 51.4328 5.212C51.7208 4.948 51.8648 4.572 51.8648 4.084C51.8648 3.052 51.2728 2.536 50.0888 2.536H48.4808V5.608H50.0888ZM57.2061 10.108C56.5901 10.108 56.0301 9.968 55.5261 9.688C55.0301 9.408 54.6381 9.012 54.3501 8.5C54.0701 7.98 53.9301 7.38 53.9301 6.7C53.9301 6.028 54.0741 5.436 54.3621 4.924C54.6581 4.404 55.0581 4.008 55.5621 3.736C56.0661 3.456 56.6301 3.316 57.2541 3.316C57.8781 3.316 58.4421 3.456 58.9461 3.736C59.4501 4.008 59.8461 4.4 60.1341 4.912C60.4301 5.424 60.5781 6.02 60.5781 6.7C60.5781 7.38 60.4261 7.98 60.1221 8.5C59.8261 9.012 59.4221 9.408 58.9101 9.688C58.3981 9.968 57.8301 10.108 57.2061 10.108ZM57.2061 9.148C57.5981 9.148 57.9661 9.056 58.3101 8.872C58.6541 8.688 58.9301 8.412 59.1381 8.044C59.3541 7.676 59.4621 7.228 59.4621 6.7C59.4621 6.172 59.3581 5.724 59.1501 5.356C58.9421 4.988 58.6701 4.716 58.3341 4.54C57.9981 4.356 57.6341 4.264 57.2421 4.264C56.8421 4.264 56.4741 4.356 56.1381 4.54C55.8101 4.716 55.5461 4.988 55.3461 5.356C55.1461 5.724 55.0461 6.172 55.0461 6.7C55.0461 7.236 55.1421 7.688 55.3341 8.056C55.5341 8.424 55.7981 8.7 56.1261 8.884C56.4541 9.06 56.8141 9.148 57.2061 9.148ZM63.1058 1.12V10H62.0138V1.12H63.1058ZM65.531 2.356C65.323 2.356 65.147 2.284 65.003 2.14C64.859 1.996 64.787 1.82 64.787 1.612C64.787 1.404 64.859 1.228 65.003 1.084C65.147 0.94 65.323 0.868 65.531 0.868C65.731 0.868 65.899 0.94 66.035 1.084C66.179 1.228 66.251 1.404 66.251 1.612C66.251 1.82 66.179 1.996 66.035 2.14C65.899 2.284 65.731 2.356 65.531 2.356ZM66.059 3.424V10H64.967V3.424H66.059ZM67.5121 6.7C67.5121 6.02 67.6481 5.428 67.9201 4.924C68.1921 4.412 68.5681 4.016 69.0481 3.736C69.5361 3.456 70.0921 3.316 70.7161 3.316C71.5241 3.316 72.1881 3.512 72.7081 3.904C73.2361 4.296 73.5841 4.84 73.7521 5.536H72.5761C72.4641 5.136 72.2441 4.82 71.9161 4.588C71.5961 4.356 71.1961 4.24 70.7161 4.24C70.0921 4.24 69.5881 4.456 69.2041 4.888C68.8201 5.312 68.6281 5.916 68.6281 6.7C68.6281 7.492 68.8201 8.104 69.2041 8.536C69.5881 8.968 70.0921 9.184 70.7161 9.184C71.1961 9.184 71.5961 9.072 71.9161 8.848C72.2361 8.624 72.4561 8.304 72.5761 7.888H73.7521C73.5761 8.56 73.2241 9.1 72.6961 9.508C72.1681 9.908 71.5081 10.108 70.7161 10.108C70.0921 10.108 69.5361 9.968 69.0481 9.688C68.5681 9.408 68.1921 9.012 67.9201 8.5C67.6481 7.988 67.5121 7.388 67.5121 6.7ZM80.8732 3.424L76.9132 13.096H75.7852L77.0812 9.928L74.4292 3.424H75.6412L77.7052 8.752L79.7452 3.424H80.8732ZM86.5381 11.272H85.4461V0.46H86.5381V11.272ZM97.0095 1.636V2.524H94.7295V10H93.6375V2.524H91.3455V1.636H97.0095ZM104.354 6.46C104.354 6.668 104.342 6.888 104.318 7.12H99.0617C99.1017 7.768 99.3217 8.276 99.7217 8.644C100.13 9.004 100.622 9.184 101.198 9.184C101.67 9.184 102.062 9.076 102.374 8.86C102.694 8.636 102.918 8.34 103.046 7.972H104.222C104.046 8.604 103.694 9.12 103.166 9.52C102.638 9.912 101.982 10.108 101.198 10.108C100.574 10.108 100.014 9.968 99.5177 9.688C99.0297 9.408 98.6457 9.012 98.3657 8.5C98.0857 7.98 97.9457 7.38 97.9457 6.7C97.9457 6.02 98.0817 5.424 98.3537 4.912C98.6257 4.4 99.0057 4.008 99.4937 3.736C99.9897 3.456 100.558 3.316 101.198 3.316C101.822 3.316 102.374 3.452 102.854 3.724C103.334 3.996 103.702 4.372 103.958 4.852C104.222 5.324 104.354 5.86 104.354 6.46ZM103.226 6.232C103.226 5.816 103.134 5.46 102.95 5.164C102.766 4.86 102.514 4.632 102.194 4.48C101.882 4.32 101.534 4.24 101.15 4.24C100.598 4.24 100.126 4.416 99.7337 4.768C99.3497 5.12 99.1297 5.608 99.0737 6.232H103.226ZM105.387 6.688C105.387 6.016 105.523 5.428 105.795 4.924C106.067 4.412 106.439 4.016 106.911 3.736C107.391 3.456 107.923 3.316 108.507 3.316C109.083 3.316 109.583 3.44 110.007 3.688C110.431 3.936 110.747 4.248 110.955 4.624V3.424H112.059V10H110.955V8.776C110.739 9.16 110.415 9.48 109.983 9.736C109.559 9.984 109.063 10.108 108.495 10.108C107.911 10.108 107.383 9.964 106.911 9.676C106.439 9.388 106.067 8.984 105.795 8.464C105.523 7.944 105.387 7.352 105.387 6.688ZM110.955 6.7C110.955 6.204 110.855 5.772 110.655 5.404C110.455 5.036 110.183 4.756 109.839 4.564C109.503 4.364 109.131 4.264 108.723 4.264C108.315 4.264 107.943 4.36 107.607 4.552C107.271 4.744 107.003 5.024 106.803 5.392C106.603 5.76 106.503 6.192 106.503 6.688C106.503 7.192 106.603 7.632 106.803 8.008C107.003 8.376 107.271 8.66 107.607 8.86C107.943 9.052 108.315 9.148 108.723 9.148C109.131 9.148 109.503 9.052 109.839 8.86C110.183 8.66 110.455 8.376 110.655 8.008C110.855 7.632 110.955 7.196 110.955 6.7ZM114.996 4.492C115.188 4.116 115.46 3.824 115.812 3.616C116.172 3.408 116.608 3.304 117.12 3.304V4.432H116.832C115.608 4.432 114.996 5.096 114.996 6.424V10H113.904V3.424H114.996V4.492ZM126.289 3.304C126.801 3.304 127.257 3.412 127.657 3.628C128.057 3.836 128.373 4.152 128.605 4.576C128.837 5 128.953 5.516 128.953 6.124V10H127.873V6.28C127.873 5.624 127.709 5.124 127.381 4.78C127.061 4.428 126.625 4.252 126.073 4.252C125.505 4.252 125.053 4.436 124.717 4.804C124.381 5.164 124.213 5.688 124.213 6.376V10H123.133V6.28C123.133 5.624 122.969 5.124 122.641 4.78C122.321 4.428 121.885 4.252 121.333 4.252C120.765 4.252 120.313 4.436 119.977 4.804C119.641 5.164 119.473 5.688 119.473 6.376V10H118.381V3.424H119.473V4.372C119.689 4.028 119.977 3.764 120.337 3.58C120.705 3.396 121.109 3.304 121.549 3.304C122.101 3.304 122.589 3.428 123.013 3.676C123.437 3.924 123.753 4.288 123.961 4.768C124.145 4.304 124.449 3.944 124.873 3.688C125.297 3.432 125.769 3.304 126.289 3.304ZM133.072 10.108C132.568 10.108 132.116 10.024 131.716 9.856C131.316 9.68 131 9.44 130.768 9.136C130.536 8.824 130.408 8.468 130.384 8.068H131.512C131.544 8.396 131.696 8.664 131.968 8.872C132.248 9.08 132.612 9.184 133.06 9.184C133.476 9.184 133.804 9.092 134.044 8.908C134.284 8.724 134.404 8.492 134.404 8.212C134.404 7.924 134.276 7.712 134.02 7.576C133.764 7.432 133.368 7.292 132.832 7.156C132.344 7.028 131.944 6.9 131.632 6.772C131.328 6.636 131.064 6.44 130.84 6.184C130.624 5.92 130.516 5.576 130.516 5.152C130.516 4.816 130.616 4.508 130.816 4.228C131.016 3.948 131.3 3.728 131.668 3.568C132.036 3.4 132.456 3.316 132.928 3.316C133.656 3.316 134.244 3.5 134.692 3.868C135.14 4.236 135.38 4.74 135.412 5.38H134.32C134.296 5.036 134.156 4.76 133.9 4.552C133.652 4.344 133.316 4.24 132.892 4.24C132.5 4.24 132.188 4.324 131.956 4.492C131.724 4.66 131.608 4.88 131.608 5.152C131.608 5.368 131.676 5.548 131.812 5.692C131.956 5.828 132.132 5.94 132.34 6.028C132.556 6.108 132.852 6.2 133.228 6.304C133.7 6.432 134.084 6.56 134.38 6.688C134.676 6.808 134.928 6.992 135.136 7.24C135.352 7.488 135.464 7.812 135.472 8.212C135.472 8.572 135.372 8.896 135.172 9.184C134.972 9.472 134.688 9.7 134.32 9.868C133.96 10.028 133.544 10.108 133.072 10.108ZM139.805 5.812C139.805 4.996 139.989 4.264 140.357 3.616C140.725 2.96 141.225 2.448 141.857 2.08C142.497 1.712 143.205 1.528 143.981 1.528C144.893 1.528 145.689 1.748 146.369 2.188C147.049 2.628 147.545 3.252 147.857 4.06H146.549C146.317 3.556 145.981 3.168 145.541 2.896C145.109 2.624 144.589 2.488 143.981 2.488C143.397 2.488 142.873 2.624 142.409 2.896C141.945 3.168 141.581 3.556 141.317 4.06C141.053 4.556 140.921 5.14 140.921 5.812C140.921 6.476 141.053 7.06 141.317 7.564C141.581 8.06 141.945 8.444 142.409 8.716C142.873 8.988 143.397 9.124 143.981 9.124C144.589 9.124 145.109 8.992 145.541 8.728C145.981 8.456 146.317 8.068 146.549 7.564H147.857C147.545 8.364 147.049 8.984 146.369 9.424C145.689 9.856 144.893 10.072 143.981 10.072C143.205 10.072 142.497 9.892 141.857 9.532C141.225 9.164 140.725 8.656 140.357 8.008C139.989 7.36 139.805 6.628 139.805 5.812ZM152.351 10.108C151.735 10.108 151.175 9.968 150.671 9.688C150.175 9.408 149.783 9.012 149.495 8.5C149.215 7.98 149.075 7.38 149.075 6.7C149.075 6.028 149.219 5.436 149.507 4.924C149.803 4.404 150.203 4.008 150.707 3.736C151.211 3.456 151.775 3.316 152.399 3.316C153.023 3.316 153.587 3.456 154.091 3.736C154.595 4.008 154.991 4.4 155.279 4.912C155.575 5.424 155.723 6.02 155.723 6.7C155.723 7.38 155.571 7.98 155.267 8.5C154.971 9.012 154.567 9.408 154.055 9.688C153.543 9.968 152.975 10.108 152.351 10.108ZM152.351 9.148C152.743 9.148 153.111 9.056 153.455 8.872C153.799 8.688 154.075 8.412 154.283 8.044C154.499 7.676 154.607 7.228 154.607 6.7C154.607 6.172 154.503 5.724 154.295 5.356C154.087 4.988 153.815 4.716 153.479 4.54C153.143 4.356 152.779 4.264 152.387 4.264C151.987 4.264 151.619 4.356 151.283 4.54C150.955 4.716 150.691 4.988 150.491 5.356C150.291 5.724 150.191 6.172 150.191 6.7C150.191 7.236 150.287 7.688 150.479 8.056C150.679 8.424 150.943 8.7 151.271 8.884C151.599 9.06 151.959 9.148 152.351 9.148ZM160.362 3.304C161.162 3.304 161.81 3.548 162.306 4.036C162.802 4.516 163.05 5.212 163.05 6.124V10H161.97V6.28C161.97 5.624 161.806 5.124 161.478 4.78C161.15 4.428 160.702 4.252 160.134 4.252C159.558 4.252 159.098 4.432 158.754 4.792C158.418 5.152 158.25 5.676 158.25 6.364V10H157.158V3.424H158.25V4.36C158.466 4.024 158.758 3.764 159.126 3.58C159.502 3.396 159.914 3.304 160.362 3.304ZM164.426 6.688C164.426 6.016 164.562 5.428 164.834 4.924C165.106 4.412 165.478 4.016 165.95 3.736C166.43 3.456 166.966 3.316 167.558 3.316C168.07 3.316 168.546 3.436 168.986 3.676C169.426 3.908 169.762 4.216 169.994 4.6V1.12H171.098V10H169.994V8.764C169.778 9.156 169.458 9.48 169.034 9.736C168.61 9.984 168.114 10.108 167.546 10.108C166.962 10.108 166.43 9.964 165.95 9.676C165.478 9.388 165.106 8.984 164.834 8.464C164.562 7.944 164.426 7.352 164.426 6.688ZM169.994 6.7C169.994 6.204 169.894 5.772 169.694 5.404C169.494 5.036 169.222 4.756 168.878 4.564C168.542 4.364 168.17 4.264 167.762 4.264C167.354 4.264 166.982 4.36 166.646 4.552C166.31 4.744 166.042 5.024 165.842 5.392C165.642 5.76 165.542 6.192 165.542 6.688C165.542 7.192 165.642 7.632 165.842 8.008C166.042 8.376 166.31 8.66 166.646 8.86C166.982 9.052 167.354 9.148 167.762 9.148C168.17 9.148 168.542 9.052 168.878 8.86C169.222 8.66 169.494 8.376 169.694 8.008C169.894 7.632 169.994 7.196 169.994 6.7ZM173.508 2.356C173.3 2.356 173.124 2.284 172.98 2.14C172.836 1.996 172.764 1.82 172.764 1.612C172.764 1.404 172.836 1.228 172.98 1.084C173.124 0.94 173.3 0.868 173.508 0.868C173.708 0.868 173.876 0.94 174.012 1.084C174.156 1.228 174.228 1.404 174.228 1.612C174.228 1.82 174.156 1.996 174.012 2.14C173.876 2.284 173.708 2.356 173.508 2.356ZM174.036 3.424V10H172.944V3.424H174.036ZM177.229 4.324V8.2C177.229 8.52 177.297 8.748 177.433 8.884C177.569 9.012 177.805 9.076 178.141 9.076H178.945V10H177.961C177.353 10 176.897 9.86 176.593 9.58C176.289 9.3 176.137 8.84 176.137 8.2V4.324H175.285V3.424H176.137V1.768H177.229V3.424H178.945V4.324H177.229ZM180.832 2.356C180.624 2.356 180.448 2.284 180.304 2.14C180.16 1.996 180.088 1.82 180.088 1.612C180.088 1.404 180.16 1.228 180.304 1.084C180.448 0.94 180.624 0.868 180.832 0.868C181.032 0.868 181.2 0.94 181.336 1.084C181.48 1.228 181.552 1.404 181.552 1.612C181.552 1.82 181.48 1.996 181.336 2.14C181.2 2.284 181.032 2.356 180.832 2.356ZM181.36 3.424V10H180.268V3.424H181.36ZM186.089 10.108C185.473 10.108 184.913 9.968 184.409 9.688C183.913 9.408 183.521 9.012 183.233 8.5C182.953 7.98 182.813 7.38 182.813 6.7C182.813 6.028 182.957 5.436 183.245 4.924C183.541 4.404 183.941 4.008 184.445 3.736C184.949 3.456 185.513 3.316 186.137 3.316C186.761 3.316 187.325 3.456 187.829 3.736C188.333 4.008 188.729 4.4 189.017 4.912C189.313 5.424 189.461 6.02 189.461 6.7C189.461 7.38 189.309 7.98 189.005 8.5C188.709 9.012 188.305 9.408 187.793 9.688C187.281 9.968 186.713 10.108 186.089 10.108ZM186.089 9.148C186.481 9.148 186.849 9.056 187.193 8.872C187.537 8.688 187.813 8.412 188.021 8.044C188.237 7.676 188.345 7.228 188.345 6.7C188.345 6.172 188.241 5.724 188.033 5.356C187.825 4.988 187.553 4.716 187.217 4.54C186.881 4.356 186.517 4.264 186.125 4.264C185.725 4.264 185.357 4.356 185.021 4.54C184.693 4.716 184.429 4.988 184.229 5.356C184.029 5.724 183.929 6.172 183.929 6.7C183.929 7.236 184.025 7.688 184.217 8.056C184.417 8.424 184.681 8.7 185.009 8.884C185.337 9.06 185.697 9.148 186.089 9.148ZM194.101 3.304C194.901 3.304 195.549 3.548 196.045 4.036C196.541 4.516 196.789 5.212 196.789 6.124V10H195.709V6.28C195.709 5.624 195.545 5.124 195.217 4.78C194.889 4.428 194.441 4.252 193.873 4.252C193.297 4.252 192.837 4.432 192.493 4.792C192.157 5.152 191.989 5.676 191.989 6.364V10H190.897V3.424H191.989V4.36C192.205 4.024 192.497 3.764 192.865 3.58C193.241 3.396 193.653 3.304 194.101 3.304Z" fill="#03045E"/>
</svg>
