<svg width="247" height="14" viewBox="0 0 247 14" fill="none" xmlns="http://www.w3.org/2000/svg">
<path d="M4.764 1.552C5.572 1.552 6.292 1.736 6.924 2.104C7.556 2.464 8.044 2.968 8.388 3.616C8.74 4.256 8.916 4.988 8.916 5.812C8.916 6.636 8.74 7.372 8.388 8.02C8.044 8.66 7.556 9.164 6.924 9.532C6.292 9.892 5.572 10.072 4.764 10.072C3.948 10.072 3.224 9.892 2.592 9.532C1.96 9.164 1.468 8.66 1.116 8.02C0.764 7.372 0.588 6.636 0.588 5.812C0.588 4.988 0.764 4.256 1.116 3.616C1.468 2.968 1.96 2.464 2.592 2.104C3.224 1.736 3.948 1.552 4.764 1.552ZM4.764 2.032C4.02 2.032 3.372 2.192 2.82 2.512C2.268 2.824 1.844 3.264 1.548 3.832C1.252 4.4 1.104 5.06 1.104 5.812C1.104 6.556 1.252 7.216 1.548 7.792C1.844 8.36 2.268 8.804 2.82 9.124C3.372 9.444 4.02 9.604 4.764 9.604C5.5 9.604 6.14 9.444 6.684 9.124C7.236 8.804 7.66 8.36 7.956 7.792C8.252 7.216 8.4 6.556 8.4 5.812C8.4 5.06 8.252 4.4 7.956 3.832C7.66 3.264 7.236 2.824 6.684 2.512C6.14 2.192 5.5 2.032 4.764 2.032ZM4.74 3.028C4.26 3.028 3.82 3.14 3.42 3.364C3.028 3.588 2.716 3.912 2.484 4.336C2.252 4.752 2.136 5.24 2.136 5.8C2.136 6.36 2.252 6.852 2.484 7.276C2.716 7.692 3.028 8.016 3.42 8.248C3.82 8.472 4.26 8.584 4.74 8.584C5.34 8.584 5.86 8.424 6.3 8.104C6.74 7.776 7.04 7.34 7.2 6.796H6.192C5.952 7.46 5.468 7.792 4.74 7.792C4.26 7.792 3.868 7.62 3.564 7.276C3.26 6.932 3.108 6.444 3.108 5.812C3.108 5.172 3.26 4.68 3.564 4.336C3.868 3.992 4.26 3.82 4.74 3.82C5.092 3.82 5.396 3.908 5.652 4.084C5.908 4.252 6.088 4.496 6.192 4.816H7.2C7.048 4.248 6.752 3.808 6.312 3.496C5.872 3.184 5.348 3.028 4.74 3.028ZM13.2191 5.812C13.2191 4.996 13.4031 4.264 13.7711 3.616C14.1391 2.96 14.6391 2.448 15.2711 2.08C15.9111 1.712 16.6191 1.528 17.3951 1.528C18.3071 1.528 19.1031 1.748 19.7831 2.188C20.4631 2.628 20.9591 3.252 21.2711 4.06H19.9631C19.7311 3.556 19.3951 3.168 18.9551 2.896C18.5231 2.624 18.0031 2.488 17.3951 2.488C16.8111 2.488 16.2871 2.624 15.8231 2.896C15.3591 3.168 14.9951 3.556 14.7311 4.06C14.4671 4.556 14.3351 5.14 14.3351 5.812C14.3351 6.476 14.4671 7.06 14.7311 7.564C14.9951 8.06 15.3591 8.444 15.8231 8.716C16.2871 8.988 16.8111 9.124 17.3951 9.124C18.0031 9.124 18.5231 8.992 18.9551 8.728C19.3951 8.456 19.7311 8.068 19.9631 7.564H21.2711C20.9591 8.364 20.4631 8.984 19.7831 9.424C19.1031 9.856 18.3071 10.072 17.3951 10.072C16.6191 10.072 15.9111 9.892 15.2711 9.532C14.6391 9.164 14.1391 8.656 13.7711 8.008C13.4031 7.36 13.2191 6.628 13.2191 5.812ZM25.7647 10.108C25.1487 10.108 24.5887 9.968 24.0847 9.688C23.5887 9.408 23.1967 9.012 22.9087 8.5C22.6287 7.98 22.4887 7.38 22.4887 6.7C22.4887 6.028 22.6327 5.436 22.9207 4.924C23.2167 4.404 23.6167 4.008 24.1207 3.736C24.6247 3.456 25.1887 3.316 25.8127 3.316C26.4367 3.316 27.0007 3.456 27.5047 3.736C28.0087 4.008 28.4047 4.4 28.6927 4.912C28.9887 5.424 29.1367 6.02 29.1367 6.7C29.1367 7.38 28.9847 7.98 28.6807 8.5C28.3847 9.012 27.9807 9.408 27.4687 9.688C26.9567 9.968 26.3887 10.108 25.7647 10.108ZM25.7647 9.148C26.1567 9.148 26.5247 9.056 26.8687 8.872C27.2127 8.688 27.4887 8.412 27.6967 8.044C27.9127 7.676 28.0207 7.228 28.0207 6.7C28.0207 6.172 27.9167 5.724 27.7087 5.356C27.5007 4.988 27.2287 4.716 26.8927 4.54C26.5567 4.356 26.1927 4.264 25.8007 4.264C25.4007 4.264 25.0327 4.356 24.6967 4.54C24.3687 4.716 24.1047 4.988 23.9047 5.356C23.7047 5.724 23.6047 6.172 23.6047 6.7C23.6047 7.236 23.7007 7.688 23.8927 8.056C24.0927 8.424 24.3567 8.7 24.6847 8.884C25.0127 9.06 25.3727 9.148 25.7647 9.148ZM31.6644 4.636C31.8804 4.26 32.2004 3.948 32.6244 3.7C33.0564 3.444 33.5564 3.316 34.1244 3.316C34.7084 3.316 35.2364 3.456 35.7084 3.736C36.1884 4.016 36.5644 4.412 36.8364 4.924C37.1084 5.428 37.2444 6.016 37.2444 6.688C37.2444 7.352 37.1084 7.944 36.8364 8.464C36.5644 8.984 36.1884 9.388 35.7084 9.676C35.2364 9.964 34.7084 10.108 34.1244 10.108C33.5644 10.108 33.0684 9.984 32.6364 9.736C32.2124 9.48 31.8884 9.164 31.6644 8.788V13.12H30.5724V3.424H31.6644V4.636ZM36.1284 6.688C36.1284 6.192 36.0284 5.76 35.8284 5.392C35.6284 5.024 35.3564 4.744 35.0124 4.552C34.6764 4.36 34.3044 4.264 33.8964 4.264C33.4964 4.264 33.1244 4.364 32.7804 4.564C32.4444 4.756 32.1724 5.04 31.9644 5.416C31.7644 5.784 31.6644 6.212 31.6644 6.7C31.6644 7.196 31.7644 7.632 31.9644 8.008C32.1724 8.376 32.4444 8.66 32.7804 8.86C33.1244 9.052 33.4964 9.148 33.8964 9.148C34.3044 9.148 34.6764 9.052 35.0124 8.86C35.3564 8.66 35.6284 8.376 35.8284 8.008C36.0284 7.632 36.1284 7.192 36.1284 6.688ZM44.3458 3.424L40.3858 13.096H39.2578L40.5538 9.928L37.9018 3.424H39.1138L41.1778 8.752L43.2178 3.424H44.3458ZM46.5355 4.492C46.7275 4.116 46.9995 3.824 47.3515 3.616C47.7115 3.408 48.1475 3.304 48.6595 3.304V4.432H48.3715C47.1475 4.432 46.5355 5.096 46.5355 6.424V10H45.4435V3.424H46.5355V4.492ZM50.4841 2.356C50.2761 2.356 50.1001 2.284 49.9561 2.14C49.8121 1.996 49.7401 1.82 49.7401 1.612C49.7401 1.404 49.8121 1.228 49.9561 1.084C50.1001 0.94 50.2761 0.868 50.4841 0.868C50.6841 0.868 50.8521 0.94 50.9881 1.084C51.1321 1.228 51.2041 1.404 51.2041 1.612C51.2041 1.82 51.1321 1.996 50.9881 2.14C50.8521 2.284 50.6841 2.356 50.4841 2.356ZM51.0121 3.424V10H49.9201V3.424H51.0121ZM55.5852 3.316C56.1532 3.316 56.6492 3.44 57.0732 3.688C57.5052 3.936 57.8252 4.248 58.0332 4.624V3.424H59.1372V10.144C59.1372 10.744 59.0092 11.276 58.7532 11.74C58.4972 12.212 58.1292 12.58 57.6492 12.844C57.1772 13.108 56.6252 13.24 55.9932 13.24C55.1292 13.24 54.4092 13.036 53.8332 12.628C53.2572 12.22 52.9172 11.664 52.8132 10.96H53.8932C54.0132 11.36 54.2612 11.68 54.6372 11.92C55.0132 12.168 55.4652 12.292 55.9932 12.292C56.5932 12.292 57.0812 12.104 57.4572 11.728C57.8412 11.352 58.0332 10.824 58.0332 10.144V8.764C57.8172 9.148 57.4972 9.468 57.0732 9.724C56.6492 9.98 56.1532 10.108 55.5852 10.108C55.0012 10.108 54.4692 9.964 53.9892 9.676C53.5172 9.388 53.1452 8.984 52.8732 8.464C52.6012 7.944 52.4652 7.352 52.4652 6.688C52.4652 6.016 52.6012 5.428 52.8732 4.924C53.1452 4.412 53.5172 4.016 53.9892 3.736C54.4692 3.456 55.0012 3.316 55.5852 3.316ZM58.0332 6.7C58.0332 6.204 57.9332 5.772 57.7332 5.404C57.5332 5.036 57.2612 4.756 56.9172 4.564C56.5812 4.364 56.2092 4.264 55.8012 4.264C55.3932 4.264 55.0212 4.36 54.6852 4.552C54.3492 4.744 54.0812 5.024 53.8812 5.392C53.6812 5.76 53.5812 6.192 53.5812 6.688C53.5812 7.192 53.6812 7.632 53.8812 8.008C54.0812 8.376 54.3492 8.66 54.6852 8.86C55.0212 9.052 55.3932 9.148 55.8012 9.148C56.2092 9.148 56.5812 9.052 56.9172 8.86C57.2612 8.66 57.5332 8.376 57.7332 8.008C57.9332 7.632 58.0332 7.196 58.0332 6.7ZM64.2466 3.304C64.7426 3.304 65.1906 3.412 65.5906 3.628C65.9906 3.836 66.3026 4.152 66.5266 4.576C66.7586 5 66.8746 5.516 66.8746 6.124V10H65.7946V6.28C65.7946 5.624 65.6306 5.124 65.3026 4.78C64.9746 4.428 64.5266 4.252 63.9586 4.252C63.3826 4.252 62.9226 4.432 62.5786 4.792C62.2426 5.152 62.0746 5.676 62.0746 6.364V10H60.9826V1.12H62.0746V4.36C62.2906 4.024 62.5866 3.764 62.9626 3.58C63.3466 3.396 63.7746 3.304 64.2466 3.304ZM69.9904 4.324V8.2C69.9904 8.52 70.0584 8.748 70.1944 8.884C70.3304 9.012 70.5664 9.076 70.9024 9.076H71.7064V10H70.7224C70.1144 10 69.6584 9.86 69.3544 9.58C69.0504 9.3 68.8984 8.84 68.8984 8.2V4.324H68.0464V3.424H68.8984V1.768H69.9904V3.424H71.7064V4.324H69.9904ZM81.4847 8.368C80.5887 8.368 79.9287 8.128 79.5047 7.648C79.0807 7.168 78.8687 6.512 78.8687 5.68C78.8687 4.84 79.1007 4.184 79.5647 3.712C80.0367 3.232 80.6687 2.992 81.4607 2.992C81.7487 2.992 82.0167 3.02 82.2647 3.076C82.5207 3.124 82.7567 3.204 82.9727 3.316L82.6727 3.928C82.4887 3.84 82.2927 3.776 82.0847 3.736C81.8847 3.688 81.6727 3.664 81.4487 3.664C80.9207 3.664 80.5047 3.84 80.2007 4.192C79.8967 4.544 79.7447 5.044 79.7447 5.692C79.7447 7.028 80.3327 7.696 81.5087 7.696C81.7567 7.696 81.9847 7.68 82.1927 7.648C82.4007 7.616 82.5927 7.568 82.7687 7.504V8.176C82.5927 8.232 82.3967 8.28 82.1807 8.32C81.9727 8.352 81.7407 8.368 81.4847 8.368ZM81.3047 10.66C80.6247 10.66 79.9847 10.532 79.3847 10.276C78.7847 10.02 78.2567 9.668 77.8007 9.22C77.3527 8.764 77.0007 8.236 76.7447 7.636C76.4887 7.036 76.3607 6.396 76.3607 5.716C76.3607 5.028 76.4887 4.388 76.7447 3.796C77.0007 3.196 77.3527 2.672 77.8007 2.224C78.2567 1.768 78.7847 1.412 79.3847 1.156C79.9847 0.899999 80.6247 0.771999 81.3047 0.771999C81.9927 0.771999 82.6327 0.899999 83.2247 1.156C83.8247 1.412 84.3487 1.768 84.7967 2.224C85.2527 2.672 85.6087 3.196 85.8647 3.796C86.1207 4.388 86.2487 5.028 86.2487 5.716C86.2487 6.396 86.1207 7.036 85.8647 7.636C85.6087 8.236 85.2527 8.764 84.7967 9.22C84.3487 9.668 83.8247 10.02 83.2247 10.276C82.6327 10.532 81.9927 10.66 81.3047 10.66ZM81.3047 9.988C81.8967 9.988 82.4487 9.88 82.9607 9.664C83.4807 9.44 83.9367 9.132 84.3287 8.74C84.7207 8.348 85.0247 7.896 85.2407 7.384C85.4647 6.864 85.5767 6.308 85.5767 5.716C85.5767 5.124 85.4647 4.572 85.2407 4.06C85.0247 3.54 84.7207 3.084 84.3287 2.692C83.9367 2.3 83.4807 1.996 82.9607 1.78C82.4487 1.556 81.8967 1.444 81.3047 1.444C80.7127 1.444 80.1567 1.556 79.6367 1.78C79.1247 1.996 78.6727 2.3 78.2807 2.692C77.8887 3.084 77.5807 3.54 77.3567 4.06C77.1407 4.572 77.0327 5.124 77.0327 5.716C77.0327 6.308 77.1407 6.864 77.3567 7.384C77.5807 7.896 77.8887 8.348 78.2807 8.74C78.6727 9.132 79.1247 9.44 79.6367 9.664C80.1567 9.88 80.7127 9.988 81.3047 9.988ZM94.0799 10.084C93.5279 10.084 93.0319 9.988 92.5919 9.796C92.1599 9.596 91.8199 9.324 91.5719 8.98C91.3239 8.628 91.1959 8.224 91.1879 7.768H92.3519C92.3919 8.16 92.5519 8.492 92.8319 8.764C93.1199 9.028 93.5359 9.16 94.0799 9.16C94.5999 9.16 95.0079 9.032 95.3039 8.776C95.6079 8.512 95.7599 8.176 95.7599 7.768C95.7599 7.448 95.6719 7.188 95.4959 6.988C95.3199 6.788 95.0999 6.636 94.8359 6.532C94.5719 6.428 94.2159 6.316 93.7679 6.196C93.2159 6.052 92.7719 5.908 92.4359 5.764C92.1079 5.62 91.8239 5.396 91.5839 5.092C91.3519 4.78 91.2359 4.364 91.2359 3.844C91.2359 3.388 91.3519 2.984 91.5839 2.632C91.8159 2.28 92.1399 2.008 92.5559 1.816C92.9799 1.624 93.4639 1.528 94.0079 1.528C94.7919 1.528 95.4319 1.724 95.9279 2.116C96.4319 2.508 96.7159 3.028 96.7799 3.676H95.5799C95.5399 3.356 95.3719 3.076 95.0759 2.836C94.7799 2.588 94.3879 2.464 93.8999 2.464C93.4439 2.464 93.0719 2.584 92.7839 2.824C92.4959 3.056 92.3519 3.384 92.3519 3.808C92.3519 4.112 92.4359 4.36 92.6039 4.552C92.7799 4.744 92.9919 4.892 93.2399 4.996C93.4959 5.092 93.8519 5.204 94.3079 5.332C94.8599 5.484 95.3039 5.636 95.6399 5.788C95.9759 5.932 96.2639 6.16 96.5039 6.472C96.7439 6.776 96.8639 7.192 96.8639 7.72C96.8639 8.128 96.7559 8.512 96.5399 8.872C96.3239 9.232 96.0039 9.524 95.5799 9.748C95.1559 9.972 94.6559 10.084 94.0799 10.084ZM101.735 3.304C102.231 3.304 102.679 3.412 103.079 3.628C103.479 3.836 103.791 4.152 104.015 4.576C104.247 5 104.363 5.516 104.363 6.124V10H103.283V6.28C103.283 5.624 103.119 5.124 102.791 4.78C102.463 4.428 102.015 4.252 101.447 4.252C100.871 4.252 100.411 4.432 100.067 4.792C99.7309 5.152 99.5629 5.676 99.5629 6.364V10H98.4709V1.12H99.5629V4.36C99.7789 4.024 100.075 3.764 100.451 3.58C100.835 3.396 101.263 3.304 101.735 3.304ZM112.147 6.46C112.147 6.668 112.135 6.888 112.111 7.12H106.855C106.895 7.768 107.115 8.276 107.515 8.644C107.923 9.004 108.415 9.184 108.991 9.184C109.463 9.184 109.855 9.076 110.167 8.86C110.487 8.636 110.711 8.34 110.839 7.972H112.015C111.839 8.604 111.487 9.12 110.959 9.52C110.431 9.912 109.775 10.108 108.991 10.108C108.367 10.108 107.807 9.968 107.311 9.688C106.823 9.408 106.439 9.012 106.159 8.5C105.879 7.98 105.739 7.38 105.739 6.7C105.739 6.02 105.875 5.424 106.147 4.912C106.419 4.4 106.799 4.008 107.287 3.736C107.783 3.456 108.351 3.316 108.991 3.316C109.615 3.316 110.167 3.452 110.647 3.724C111.127 3.996 111.495 4.372 111.751 4.852C112.015 5.324 112.147 5.86 112.147 6.46ZM111.019 6.232C111.019 5.816 110.927 5.46 110.743 5.164C110.559 4.86 110.307 4.632 109.987 4.48C109.675 4.32 109.327 4.24 108.943 4.24C108.391 4.24 107.919 4.416 107.527 4.768C107.143 5.12 106.923 5.608 106.867 6.232H111.019ZM114.152 2.356C113.944 2.356 113.768 2.284 113.624 2.14C113.48 1.996 113.408 1.82 113.408 1.612C113.408 1.404 113.48 1.228 113.624 1.084C113.768 0.94 113.944 0.868 114.152 0.868C114.352 0.868 114.52 0.94 114.656 1.084C114.8 1.228 114.872 1.404 114.872 1.612C114.872 1.82 114.8 1.996 114.656 2.14C114.52 2.284 114.352 2.356 114.152 2.356ZM114.68 3.424V10H113.588V3.424H114.68ZM117.633 1.12V10H116.541V1.12H117.633ZM119.086 6.688C119.086 6.016 119.222 5.428 119.494 4.924C119.766 4.412 120.138 4.016 120.61 3.736C121.09 3.456 121.626 3.316 122.218 3.316C122.73 3.316 123.206 3.436 123.646 3.676C124.086 3.908 124.422 4.216 124.654 4.6V1.12H125.758V10H124.654V8.764C124.438 9.156 124.118 9.48 123.694 9.736C123.27 9.984 122.774 10.108 122.206 10.108C121.622 10.108 121.09 9.964 120.61 9.676C120.138 9.388 119.766 8.984 119.494 8.464C119.222 7.944 119.086 7.352 119.086 6.688ZM124.654 6.7C124.654 6.204 124.554 5.772 124.354 5.404C124.154 5.036 123.882 4.756 123.538 4.564C123.202 4.364 122.83 4.264 122.422 4.264C122.014 4.264 121.642 4.36 121.306 4.552C120.97 4.744 120.702 5.024 120.502 5.392C120.302 5.76 120.202 6.192 120.202 6.688C120.202 7.192 120.302 7.632 120.502 8.008C120.702 8.376 120.97 8.66 121.306 8.86C121.642 9.052 122.014 9.148 122.422 9.148C122.83 9.148 123.202 9.052 123.538 8.86C123.882 8.66 124.154 8.376 124.354 8.008C124.554 7.632 124.654 7.196 124.654 6.7ZM127.952 10.072C127.744 10.072 127.568 10 127.424 9.856C127.28 9.712 127.208 9.536 127.208 9.328C127.208 9.12 127.28 8.944 127.424 8.8C127.568 8.656 127.744 8.584 127.952 8.584C128.152 8.584 128.32 8.656 128.456 8.8C128.6 8.944 128.672 9.12 128.672 9.328C128.672 9.536 128.6 9.712 128.456 9.856C128.32 10 128.152 10.072 127.952 10.072ZM138.266 8.14H134.618L133.946 10H132.794L135.818 1.684H137.078L140.09 10H138.938L138.266 8.14ZM137.954 7.252L136.442 3.028L134.93 7.252H137.954ZM142.5 1.12V10H141.408V1.12H142.5ZM145.454 1.12V10H144.362V1.12H145.454ZM154.918 10L152.926 6.58H151.606V10H150.514V1.636H153.214C153.846 1.636 154.378 1.744 154.81 1.96C155.25 2.176 155.578 2.468 155.794 2.836C156.01 3.204 156.118 3.624 156.118 4.096C156.118 4.672 155.95 5.18 155.614 5.62C155.286 6.06 154.79 6.352 154.126 6.496L156.226 10H154.918ZM151.606 5.704H153.214C153.806 5.704 154.25 5.56 154.546 5.272C154.842 4.976 154.99 4.584 154.99 4.096C154.99 3.6 154.842 3.216 154.546 2.944C154.258 2.672 153.814 2.536 153.214 2.536H151.606V5.704ZM158.379 2.356C158.171 2.356 157.995 2.284 157.851 2.14C157.707 1.996 157.635 1.82 157.635 1.612C157.635 1.404 157.707 1.228 157.851 1.084C157.995 0.94 158.171 0.868 158.379 0.868C158.579 0.868 158.747 0.94 158.883 1.084C159.027 1.228 159.099 1.404 159.099 1.612C159.099 1.82 159.027 1.996 158.883 2.14C158.747 2.284 158.579 2.356 158.379 2.356ZM158.907 3.424V10H157.815V3.424H158.907ZM163.48 3.316C164.048 3.316 164.544 3.44 164.968 3.688C165.4 3.936 165.72 4.248 165.928 4.624V3.424H167.032V10.144C167.032 10.744 166.904 11.276 166.648 11.74C166.392 12.212 166.024 12.58 165.544 12.844C165.072 13.108 164.52 13.24 163.888 13.24C163.024 13.24 162.304 13.036 161.728 12.628C161.152 12.22 160.812 11.664 160.708 10.96H161.788C161.908 11.36 162.156 11.68 162.532 11.92C162.908 12.168 163.36 12.292 163.888 12.292C164.488 12.292 164.976 12.104 165.352 11.728C165.736 11.352 165.928 10.824 165.928 10.144V8.764C165.712 9.148 165.392 9.468 164.968 9.724C164.544 9.98 164.048 10.108 163.48 10.108C162.896 10.108 162.364 9.964 161.884 9.676C161.412 9.388 161.04 8.984 160.768 8.464C160.496 7.944 160.36 7.352 160.36 6.688C160.36 6.016 160.496 5.428 160.768 4.924C161.04 4.412 161.412 4.016 161.884 3.736C162.364 3.456 162.896 3.316 163.48 3.316ZM165.928 6.7C165.928 6.204 165.828 5.772 165.628 5.404C165.428 5.036 165.156 4.756 164.812 4.564C164.476 4.364 164.104 4.264 163.696 4.264C163.288 4.264 162.916 4.36 162.58 4.552C162.244 4.744 161.976 5.024 161.776 5.392C161.576 5.76 161.476 6.192 161.476 6.688C161.476 7.192 161.576 7.632 161.776 8.008C161.976 8.376 162.244 8.66 162.58 8.86C162.916 9.052 163.288 9.148 163.696 9.148C164.104 9.148 164.476 9.052 164.812 8.86C165.156 8.66 165.428 8.376 165.628 8.008C165.828 7.632 165.928 7.196 165.928 6.7ZM172.141 3.304C172.637 3.304 173.085 3.412 173.485 3.628C173.885 3.836 174.197 4.152 174.421 4.576C174.653 5 174.769 5.516 174.769 6.124V10H173.689V6.28C173.689 5.624 173.525 5.124 173.197 4.78C172.869 4.428 172.421 4.252 171.853 4.252C171.277 4.252 170.817 4.432 170.473 4.792C170.137 5.152 169.969 5.676 169.969 6.364V10H168.877V1.12H169.969V4.36C170.185 4.024 170.481 3.764 170.857 3.58C171.241 3.396 171.669 3.304 172.141 3.304ZM177.885 4.324V8.2C177.885 8.52 177.953 8.748 178.089 8.884C178.225 9.012 178.461 9.076 178.797 9.076H179.601V10H178.617C178.009 10 177.553 9.86 177.249 9.58C176.945 9.3 176.793 8.84 176.793 8.2V4.324H175.941V3.424H176.793V1.768H177.885V3.424H179.601V4.324H177.885ZM183.252 10.108C182.748 10.108 182.296 10.024 181.896 9.856C181.496 9.68 181.18 9.44 180.948 9.136C180.716 8.824 180.588 8.468 180.564 8.068H181.692C181.724 8.396 181.876 8.664 182.148 8.872C182.428 9.08 182.792 9.184 183.24 9.184C183.656 9.184 183.984 9.092 184.224 8.908C184.464 8.724 184.584 8.492 184.584 8.212C184.584 7.924 184.456 7.712 184.2 7.576C183.944 7.432 183.548 7.292 183.012 7.156C182.524 7.028 182.124 6.9 181.812 6.772C181.508 6.636 181.244 6.44 181.02 6.184C180.804 5.92 180.696 5.576 180.696 5.152C180.696 4.816 180.796 4.508 180.996 4.228C181.196 3.948 181.48 3.728 181.848 3.568C182.216 3.4 182.636 3.316 183.108 3.316C183.836 3.316 184.424 3.5 184.872 3.868C185.32 4.236 185.56 4.74 185.592 5.38H184.5C184.476 5.036 184.336 4.76 184.08 4.552C183.832 4.344 183.496 4.24 183.072 4.24C182.68 4.24 182.368 4.324 182.136 4.492C181.904 4.66 181.788 4.88 181.788 5.152C181.788 5.368 181.856 5.548 181.992 5.692C182.136 5.828 182.312 5.94 182.52 6.028C182.736 6.108 183.032 6.2 183.408 6.304C183.88 6.432 184.264 6.56 184.56 6.688C184.856 6.808 185.108 6.992 185.316 7.24C185.532 7.488 185.644 7.812 185.652 8.212C185.652 8.572 185.552 8.896 185.352 9.184C185.152 9.472 184.868 9.7 184.5 9.868C184.14 10.028 183.724 10.108 183.252 10.108ZM194.797 10L192.805 6.58H191.485V10H190.393V1.636H193.093C193.725 1.636 194.257 1.744 194.689 1.96C195.129 2.176 195.457 2.468 195.673 2.836C195.889 3.204 195.997 3.624 195.997 4.096C195.997 4.672 195.829 5.18 195.493 5.62C195.165 6.06 194.669 6.352 194.005 6.496L196.105 10H194.797ZM191.485 5.704H193.093C193.685 5.704 194.129 5.56 194.425 5.272C194.721 4.976 194.869 4.584 194.869 4.096C194.869 3.6 194.721 3.216 194.425 2.944C194.137 2.672 193.693 2.536 193.093 2.536H191.485V5.704ZM203.694 6.46C203.694 6.668 203.682 6.888 203.658 7.12H198.402C198.442 7.768 198.662 8.276 199.062 8.644C199.47 9.004 199.962 9.184 200.538 9.184C201.01 9.184 201.402 9.076 201.714 8.86C202.034 8.636 202.258 8.34 202.386 7.972H203.562C203.386 8.604 203.034 9.12 202.506 9.52C201.978 9.912 201.322 10.108 200.538 10.108C199.914 10.108 199.354 9.968 198.858 9.688C198.37 9.408 197.986 9.012 197.706 8.5C197.426 7.98 197.286 7.38 197.286 6.7C197.286 6.02 197.422 5.424 197.694 4.912C197.966 4.4 198.346 4.008 198.834 3.736C199.33 3.456 199.898 3.316 200.538 3.316C201.162 3.316 201.714 3.452 202.194 3.724C202.674 3.996 203.042 4.372 203.298 4.852C203.562 5.324 203.694 5.86 203.694 6.46ZM202.566 6.232C202.566 5.816 202.474 5.46 202.29 5.164C202.106 4.86 201.854 4.632 201.534 4.48C201.222 4.32 200.874 4.24 200.49 4.24C199.938 4.24 199.466 4.416 199.074 4.768C198.69 5.12 198.47 5.608 198.414 6.232H202.566ZM207.463 10.108C206.959 10.108 206.507 10.024 206.107 9.856C205.707 9.68 205.391 9.44 205.159 9.136C204.927 8.824 204.799 8.468 204.775 8.068H205.903C205.935 8.396 206.087 8.664 206.359 8.872C206.639 9.08 207.003 9.184 207.451 9.184C207.867 9.184 208.195 9.092 208.435 8.908C208.675 8.724 208.795 8.492 208.795 8.212C208.795 7.924 208.667 7.712 208.411 7.576C208.155 7.432 207.759 7.292 207.223 7.156C206.735 7.028 206.335 6.9 206.023 6.772C205.719 6.636 205.455 6.44 205.231 6.184C205.015 5.92 204.907 5.576 204.907 5.152C204.907 4.816 205.007 4.508 205.207 4.228C205.407 3.948 205.691 3.728 206.059 3.568C206.427 3.4 206.847 3.316 207.319 3.316C208.047 3.316 208.635 3.5 209.083 3.868C209.531 4.236 209.771 4.74 209.803 5.38H208.711C208.687 5.036 208.547 4.76 208.291 4.552C208.043 4.344 207.707 4.24 207.283 4.24C206.891 4.24 206.579 4.324 206.347 4.492C206.115 4.66 205.999 4.88 205.999 5.152C205.999 5.368 206.067 5.548 206.203 5.692C206.347 5.828 206.523 5.94 206.731 6.028C206.947 6.108 207.243 6.2 207.619 6.304C208.091 6.432 208.475 6.56 208.771 6.688C209.067 6.808 209.319 6.992 209.527 7.24C209.743 7.488 209.855 7.812 209.863 8.212C209.863 8.572 209.763 8.896 209.563 9.184C209.363 9.472 209.079 9.7 208.711 9.868C208.351 10.028 207.935 10.108 207.463 10.108ZM217.404 6.46C217.404 6.668 217.392 6.888 217.368 7.12H212.112C212.152 7.768 212.372 8.276 212.772 8.644C213.18 9.004 213.672 9.184 214.248 9.184C214.72 9.184 215.112 9.076 215.424 8.86C215.744 8.636 215.968 8.34 216.096 7.972H217.272C217.096 8.604 216.744 9.12 216.216 9.52C215.688 9.912 215.032 10.108 214.248 10.108C213.624 10.108 213.064 9.968 212.568 9.688C212.08 9.408 211.696 9.012 211.416 8.5C211.136 7.98 210.996 7.38 210.996 6.7C210.996 6.02 211.132 5.424 211.404 4.912C211.676 4.4 212.056 4.008 212.544 3.736C213.04 3.456 213.608 3.316 214.248 3.316C214.872 3.316 215.424 3.452 215.904 3.724C216.384 3.996 216.752 4.372 217.008 4.852C217.272 5.324 217.404 5.86 217.404 6.46ZM216.276 6.232C216.276 5.816 216.184 5.46 216 5.164C215.816 4.86 215.564 4.632 215.244 4.48C214.932 4.32 214.584 4.24 214.2 4.24C213.648 4.24 213.176 4.416 212.784 4.768C212.4 5.12 212.18 5.608 212.124 6.232H216.276ZM219.938 4.492C220.13 4.116 220.402 3.824 220.754 3.616C221.114 3.408 221.55 3.304 222.062 3.304V4.432H221.774C220.55 4.432 219.938 5.096 219.938 6.424V10H218.846V3.424H219.938V4.492ZM225.77 8.992L227.81 3.424H228.974L226.394 10H225.122L222.542 3.424H223.718L225.77 8.992ZM236.049 6.46C236.049 6.668 236.037 6.888 236.013 7.12H230.757C230.797 7.768 231.017 8.276 231.417 8.644C231.825 9.004 232.317 9.184 232.893 9.184C233.365 9.184 233.757 9.076 234.069 8.86C234.389 8.636 234.613 8.34 234.741 7.972H235.917C235.741 8.604 235.389 9.12 234.861 9.52C234.333 9.912 233.677 10.108 232.893 10.108C232.269 10.108 231.709 9.968 231.213 9.688C230.725 9.408 230.341 9.012 230.061 8.5C229.781 7.98 229.641 7.38 229.641 6.7C229.641 6.02 229.777 5.424 230.049 4.912C230.321 4.4 230.701 4.008 231.189 3.736C231.685 3.456 232.253 3.316 232.893 3.316C233.517 3.316 234.069 3.452 234.549 3.724C235.029 3.996 235.397 4.372 235.653 4.852C235.917 5.324 236.049 5.86 236.049 6.46ZM234.921 6.232C234.921 5.816 234.829 5.46 234.645 5.164C234.461 4.86 234.209 4.632 233.889 4.48C233.577 4.32 233.229 4.24 232.845 4.24C232.293 4.24 231.821 4.416 231.429 4.768C231.045 5.12 230.825 5.608 230.769 6.232H234.921ZM237.082 6.688C237.082 6.016 237.218 5.428 237.49 4.924C237.762 4.412 238.134 4.016 238.606 3.736C239.086 3.456 239.622 3.316 240.214 3.316C240.726 3.316 241.202 3.436 241.642 3.676C242.082 3.908 242.418 4.216 242.65 4.6V1.12H243.754V10H242.65V8.764C242.434 9.156 242.114 9.48 241.69 9.736C241.266 9.984 240.77 10.108 240.202 10.108C239.618 10.108 239.086 9.964 238.606 9.676C238.134 9.388 237.762 8.984 237.49 8.464C237.218 7.944 237.082 7.352 237.082 6.688ZM242.65 6.7C242.65 6.204 242.55 5.772 242.35 5.404C242.15 5.036 241.878 4.756 241.534 4.564C241.198 4.364 240.826 4.264 240.418 4.264C240.01 4.264 239.638 4.36 239.302 4.552C238.966 4.744 238.698 5.024 238.498 5.392C238.298 5.76 238.198 6.192 238.198 6.688C238.198 7.192 238.298 7.632 238.498 8.008C238.698 8.376 238.966 8.66 239.302 8.86C239.638 9.052 240.01 9.148 240.418 9.148C240.826 9.148 241.198 9.052 241.534 8.86C241.878 8.66 242.15 8.376 242.35 8.008C242.55 7.632 242.65 7.196 242.65 6.7ZM245.948 10.072C245.74 10.072 245.564 10 245.42 9.856C245.276 9.712 245.204 9.536 245.204 9.328C245.204 9.12 245.276 8.944 245.42 8.8C245.564 8.656 245.74 8.584 245.948 8.584C246.148 8.584 246.316 8.656 246.452 8.8C246.596 8.944 246.668 9.12 246.668 9.328C246.668 9.536 246.596 9.712 246.452 9.856C246.316 10 246.148 10.072 245.948 10.072Z" fill="#03045E"/>
</svg>
